%TF.GenerationSoftware,KiCad,Pcbnew,7.0.5-0*%
%TF.CreationDate,2024-04-01T07:30:38-07:00*%
%TF.ProjectId,StarNecklace,53746172-4e65-4636-9b6c-6163652e6b69,1*%
%TF.SameCoordinates,Original*%
%TF.FileFunction,Soldermask,Top*%
%TF.FilePolarity,Negative*%
%FSLAX46Y46*%
G04 Gerber Fmt 4.6, Leading zero omitted, Abs format (unit mm)*
G04 Created by KiCad (PCBNEW 7.0.5-0) date 2024-04-01 07:30:38*
%MOMM*%
%LPD*%
G01*
G04 APERTURE LIST*
G04 Aperture macros list*
%AMRoundRect*
0 Rectangle with rounded corners*
0 $1 Rounding radius*
0 $2 $3 $4 $5 $6 $7 $8 $9 X,Y pos of 4 corners*
0 Add a 4 corners polygon primitive as box body*
4,1,4,$2,$3,$4,$5,$6,$7,$8,$9,$2,$3,0*
0 Add four circle primitives for the rounded corners*
1,1,$1+$1,$2,$3*
1,1,$1+$1,$4,$5*
1,1,$1+$1,$6,$7*
1,1,$1+$1,$8,$9*
0 Add four rect primitives between the rounded corners*
20,1,$1+$1,$2,$3,$4,$5,0*
20,1,$1+$1,$4,$5,$6,$7,0*
20,1,$1+$1,$6,$7,$8,$9,0*
20,1,$1+$1,$8,$9,$2,$3,0*%
G04 Aperture macros list end*
%ADD10RoundRect,0.218750X0.218750X0.256250X-0.218750X0.256250X-0.218750X-0.256250X0.218750X-0.256250X0*%
%ADD11RoundRect,0.250000X0.262500X0.450000X-0.262500X0.450000X-0.262500X-0.450000X0.262500X-0.450000X0*%
%ADD12RoundRect,0.218750X-0.218750X-0.256250X0.218750X-0.256250X0.218750X0.256250X-0.218750X0.256250X0*%
%ADD13RoundRect,0.150000X-0.825000X-0.150000X0.825000X-0.150000X0.825000X0.150000X-0.825000X0.150000X0*%
%ADD14RoundRect,0.250000X-0.262500X-0.450000X0.262500X-0.450000X0.262500X0.450000X-0.262500X0.450000X0*%
%ADD15RoundRect,0.250000X0.450000X-0.262500X0.450000X0.262500X-0.450000X0.262500X-0.450000X-0.262500X0*%
%ADD16R,1.700000X1.700000*%
%ADD17O,1.700000X1.700000*%
%ADD18C,1.676400*%
G04 APERTURE END LIST*
D10*
%TO.C,D5*%
X113269500Y-84633800D03*
X111694500Y-84633800D03*
%TD*%
D11*
%TO.C,R5*%
X113040800Y-80671400D03*
X111215800Y-80671400D03*
%TD*%
D10*
%TO.C,D2*%
X75169500Y-58624200D03*
X73594500Y-58624200D03*
%TD*%
D12*
%TO.C,D3*%
X119441400Y-57100200D03*
X121016400Y-57100200D03*
%TD*%
D11*
%TO.C,R3*%
X116290100Y-57252600D03*
X114465100Y-57252600D03*
%TD*%
D12*
%TO.C,D4*%
X83462500Y-85500000D03*
X85037500Y-85500000D03*
%TD*%
D13*
%TO.C,U1*%
X95100000Y-62620000D03*
X95100000Y-63890000D03*
X95100000Y-65160000D03*
X95100000Y-66430000D03*
X100050000Y-66430000D03*
X100050000Y-65160000D03*
X100050000Y-63890000D03*
X100050000Y-62620000D03*
%TD*%
D11*
%TO.C,R6*%
X98612500Y-70350000D03*
X96787500Y-70350000D03*
%TD*%
D14*
%TO.C,R2*%
X78195800Y-58675000D03*
X80020800Y-58675000D03*
%TD*%
D15*
%TO.C,R1*%
X96940656Y-45181958D03*
X96940656Y-43356958D03*
%TD*%
D12*
%TO.C,D1*%
X96175000Y-39625000D03*
X97750000Y-39625000D03*
%TD*%
D14*
%TO.C,R4*%
X84087500Y-81500000D03*
X85912500Y-81500000D03*
%TD*%
D16*
%TO.C,J1*%
X100900000Y-80850000D03*
D17*
X100900000Y-78310000D03*
X98360000Y-80850000D03*
X98360000Y-78310000D03*
X95820000Y-80850000D03*
X95820000Y-78310000D03*
%TD*%
D18*
%TO.C,SW1*%
X99734656Y-50771858D03*
X97194656Y-50771858D03*
X94654656Y-50771858D03*
%TD*%
M02*
