%TF.GenerationSoftware,KiCad,Pcbnew,7.0.5-0*%
%TF.CreationDate,2024-04-01T07:30:38-07:00*%
%TF.ProjectId,StarNecklace,53746172-4e65-4636-9b6c-6163652e6b69,1*%
%TF.SameCoordinates,Original*%
%TF.FileFunction,Profile,NP*%
%FSLAX46Y46*%
G04 Gerber Fmt 4.6, Leading zero omitted, Abs format (unit mm)*
G04 Created by KiCad (PCBNEW 7.0.5-0) date 2024-04-01 07:30:38*
%MOMM*%
%LPD*%
G01*
G04 APERTURE LIST*
%ADD10C,0.050000*%
G04 APERTURE END LIST*
D10*
X81666391Y-90178892D02*
X81521942Y-90032452D01*
X81396680Y-89807346D01*
X81289512Y-89508665D01*
X81199348Y-89141500D01*
X81125095Y-88710946D01*
X81065661Y-88222094D01*
X81019955Y-87680036D01*
X80986883Y-87089865D01*
X80965355Y-86456674D01*
X80954279Y-85785554D01*
X80952562Y-85081599D01*
X80959114Y-84349900D01*
X80972841Y-83595550D01*
X80992651Y-82823641D01*
X81017454Y-82039266D01*
X81046157Y-81247517D01*
X81077668Y-80453487D01*
X81110896Y-79662268D01*
X81144748Y-78878952D01*
X81178132Y-78108631D01*
X81209957Y-77356399D01*
X81239131Y-76627348D01*
X81264561Y-75926569D01*
X81285156Y-75259156D01*
X81299825Y-74630200D01*
X81307474Y-74044795D01*
X81307012Y-73508032D01*
X81297348Y-73025004D01*
X81277389Y-72600803D01*
X81246043Y-72240522D01*
X81202219Y-71949254D01*
X81144825Y-71732090D01*
X81144825Y-71732090D02*
X81050223Y-71529101D01*
X80898217Y-71279048D01*
X80692872Y-70985058D01*
X80438253Y-70650260D01*
X80138426Y-70277780D01*
X79797457Y-69870746D01*
X79419410Y-69432286D01*
X79008352Y-68965526D01*
X78568349Y-68473595D01*
X78103465Y-67959620D01*
X77617766Y-67426728D01*
X77115319Y-66878046D01*
X76600187Y-66316703D01*
X76076438Y-65745826D01*
X75548136Y-65168542D01*
X75019347Y-64587979D01*
X74494137Y-64007264D01*
X73976571Y-63429524D01*
X73470715Y-62857888D01*
X72980634Y-62295482D01*
X72510394Y-61745434D01*
X72064060Y-61210872D01*
X71645699Y-60694923D01*
X71259374Y-60200714D01*
X70909153Y-59731374D01*
X70599101Y-59290029D01*
X70333283Y-58879806D01*
X70115764Y-58503834D01*
X69950611Y-58165240D01*
X69841889Y-57867151D01*
X69793663Y-57612695D01*
X69810000Y-57405000D01*
X98446702Y-83543431D02*
X98229348Y-83573034D01*
X97950638Y-83644122D01*
X97614728Y-83753691D01*
X97225772Y-83898740D01*
X96787924Y-84076268D01*
X96305339Y-84283273D01*
X95782172Y-84516754D01*
X95222578Y-84773710D01*
X94630711Y-85051137D01*
X94010726Y-85346036D01*
X93366779Y-85655405D01*
X92703022Y-85976241D01*
X92023612Y-86305544D01*
X91332703Y-86640312D01*
X90634450Y-86977543D01*
X89933007Y-87314236D01*
X89232529Y-87647390D01*
X88537171Y-87974002D01*
X87851088Y-88291072D01*
X87178434Y-88595597D01*
X86523364Y-88884577D01*
X85890033Y-89155009D01*
X85282595Y-89403892D01*
X84705206Y-89628225D01*
X84162019Y-89825007D01*
X83657190Y-89991234D01*
X83194873Y-90123907D01*
X82779224Y-90220023D01*
X82414396Y-90276581D01*
X82104545Y-90290579D01*
X81853825Y-90259017D01*
X81666391Y-90178892D01*
X69810000Y-57405000D02*
X69901074Y-57218766D01*
X70070984Y-57026948D01*
X70314671Y-56830056D01*
X70627078Y-56628596D01*
X71003149Y-56423076D01*
X71437828Y-56214005D01*
X71926057Y-56001891D01*
X72462779Y-55787240D01*
X73042937Y-55570562D01*
X73661476Y-55352365D01*
X74313338Y-55133155D01*
X74993465Y-54913441D01*
X75696803Y-54693732D01*
X76418292Y-54474535D01*
X77152878Y-54256357D01*
X77895502Y-54039707D01*
X78641109Y-53825094D01*
X79384641Y-53613023D01*
X80121041Y-53404005D01*
X80845253Y-53198546D01*
X81552221Y-52997155D01*
X82236886Y-52800339D01*
X82894192Y-52608607D01*
X83519083Y-52422466D01*
X84106501Y-52242424D01*
X84651391Y-52068990D01*
X85148694Y-51902671D01*
X85593355Y-51743975D01*
X85980315Y-51593410D01*
X86304520Y-51451484D01*
X86560911Y-51318705D01*
X86744433Y-51195581D01*
X115703480Y-88734753D02*
X115523130Y-88830483D01*
X115275805Y-88883177D01*
X114965885Y-88895475D01*
X114597754Y-88870015D01*
X114175791Y-88809438D01*
X113704381Y-88716382D01*
X113187904Y-88593487D01*
X112630743Y-88443392D01*
X112037279Y-88268737D01*
X111411895Y-88072160D01*
X110758973Y-87856301D01*
X110082894Y-87623800D01*
X109388041Y-87377296D01*
X108678795Y-87119428D01*
X107959538Y-86852835D01*
X107234653Y-86580157D01*
X106508522Y-86304033D01*
X105785526Y-86027103D01*
X105070047Y-85752006D01*
X104366467Y-85481381D01*
X103679169Y-85217867D01*
X103012534Y-84964105D01*
X102370945Y-84722732D01*
X101758782Y-84496389D01*
X101180429Y-84287715D01*
X100640267Y-84099350D01*
X100142679Y-83933931D01*
X99692045Y-83794100D01*
X99292748Y-83682495D01*
X98949171Y-83601755D01*
X98665695Y-83554521D01*
X98446702Y-83543431D01*
X96519433Y-35705495D02*
X96720169Y-35736834D01*
X96950441Y-35843391D01*
X97208215Y-36020385D01*
X97491458Y-36263040D01*
X97798136Y-36566576D01*
X98126216Y-36926215D01*
X98473664Y-37337179D01*
X98838448Y-37794688D01*
X99218534Y-38293965D01*
X99611888Y-38830231D01*
X100016477Y-39398708D01*
X100430268Y-39994616D01*
X100851228Y-40613178D01*
X101277322Y-41249615D01*
X101706518Y-41899149D01*
X102136782Y-42557001D01*
X102566081Y-43218393D01*
X102992382Y-43878545D01*
X103413650Y-44532681D01*
X103827854Y-45176020D01*
X104232958Y-45803786D01*
X104626931Y-46411198D01*
X105007738Y-46993480D01*
X105373347Y-47545851D01*
X105721723Y-48063535D01*
X106050834Y-48541751D01*
X106358646Y-48975723D01*
X106643126Y-49360671D01*
X106902240Y-49691817D01*
X107133956Y-49964382D01*
X107336238Y-50173589D01*
X107507056Y-50314658D01*
X114739457Y-70306729D02*
X114699726Y-70528013D01*
X114679480Y-70822001D01*
X114677221Y-71183707D01*
X114691451Y-71608151D01*
X114720673Y-72090349D01*
X114763389Y-72625319D01*
X114818100Y-73208079D01*
X114883310Y-73833645D01*
X114957519Y-74497036D01*
X115039231Y-75193269D01*
X115126948Y-75917361D01*
X115219172Y-76664330D01*
X115314405Y-77429193D01*
X115411149Y-78206968D01*
X115507907Y-78992673D01*
X115603180Y-79781324D01*
X115695471Y-80567939D01*
X115783282Y-81347536D01*
X115865116Y-82115132D01*
X115939473Y-82865744D01*
X116004858Y-83594391D01*
X116059772Y-84296089D01*
X116102716Y-84965857D01*
X116132194Y-85598710D01*
X116146707Y-86189668D01*
X116144759Y-86733747D01*
X116124849Y-87225966D01*
X116085483Y-87661340D01*
X116025160Y-88034889D01*
X115942384Y-88341629D01*
X115835656Y-88576577D01*
X115703480Y-88734753D01*
X124883167Y-55068349D02*
X124916153Y-55273951D01*
X124888559Y-55531623D01*
X124804185Y-55837905D01*
X124666831Y-56189333D01*
X124480297Y-56582448D01*
X124248383Y-57013788D01*
X123974889Y-57479892D01*
X123663616Y-57977298D01*
X123318363Y-58502546D01*
X122942930Y-59052174D01*
X122541119Y-59622722D01*
X122116728Y-60210727D01*
X121673558Y-60812729D01*
X121215409Y-61425266D01*
X120746081Y-62044877D01*
X120269375Y-62668102D01*
X119789090Y-63291478D01*
X119309026Y-63911545D01*
X118832984Y-64524842D01*
X118364764Y-65127907D01*
X117908165Y-65717278D01*
X117466989Y-66289496D01*
X117045034Y-66841098D01*
X116646102Y-67368624D01*
X116273992Y-67868612D01*
X115932505Y-68337601D01*
X115625440Y-68772129D01*
X115356597Y-69168737D01*
X115129778Y-69523962D01*
X114948781Y-69834343D01*
X114817407Y-70096419D01*
X114739457Y-70306729D01*
X86744433Y-51195581D02*
X86903319Y-51040522D01*
X87088084Y-50814894D01*
X87297084Y-50523629D01*
X87528677Y-50171663D01*
X87781222Y-49763930D01*
X88053076Y-49305364D01*
X88342597Y-48800899D01*
X88648143Y-48255471D01*
X88968073Y-47674013D01*
X89300744Y-47061460D01*
X89644513Y-46422746D01*
X89997740Y-45762806D01*
X90358781Y-45086575D01*
X90725995Y-44398985D01*
X91097740Y-43704973D01*
X91472373Y-43009472D01*
X91848253Y-42317417D01*
X92223738Y-41633742D01*
X92597185Y-40963382D01*
X92966952Y-40311271D01*
X93331397Y-39682344D01*
X93688879Y-39081534D01*
X94037755Y-38513777D01*
X94376383Y-37984006D01*
X94703121Y-37497157D01*
X95016327Y-37058163D01*
X95314358Y-36671959D01*
X95595574Y-36343480D01*
X95858331Y-36077659D01*
X96100988Y-35879432D01*
X96321902Y-35753732D01*
X96519433Y-35705495D01*
X107507056Y-50314658D02*
X107699854Y-50421815D01*
X107966051Y-50532422D01*
X108300566Y-50646400D01*
X108698317Y-50763671D01*
X109154225Y-50884157D01*
X109663210Y-51007782D01*
X110220190Y-51134466D01*
X110820086Y-51264132D01*
X111457817Y-51396703D01*
X112128302Y-51532099D01*
X112826462Y-51670244D01*
X113547216Y-51811060D01*
X114285483Y-51954469D01*
X115036183Y-52100393D01*
X115794236Y-52248753D01*
X116554561Y-52399474D01*
X117312078Y-52552475D01*
X118061706Y-52707681D01*
X118798365Y-52865012D01*
X119516975Y-53024391D01*
X120212454Y-53185740D01*
X120879724Y-53348981D01*
X121513703Y-53514037D01*
X122109311Y-53680830D01*
X122661467Y-53849281D01*
X123165092Y-54019313D01*
X123615104Y-54190849D01*
X124006424Y-54363810D01*
X124333970Y-54538118D01*
X124592663Y-54713695D01*
X124777422Y-54890465D01*
X124883167Y-55068349D01*
M02*
