%TF.GenerationSoftware,KiCad,Pcbnew,7.0.5-0*%
%TF.CreationDate,2024-04-01T07:30:38-07:00*%
%TF.ProjectId,StarNecklace,53746172-4e65-4636-9b6c-6163652e6b69,1*%
%TF.SameCoordinates,Original*%
%TF.FileFunction,Copper,L2,Bot*%
%TF.FilePolarity,Positive*%
%FSLAX46Y46*%
G04 Gerber Fmt 4.6, Leading zero omitted, Abs format (unit mm)*
G04 Created by KiCad (PCBNEW 7.0.5-0) date 2024-04-01 07:30:38*
%MOMM*%
%LPD*%
G01*
G04 APERTURE LIST*
%TA.AperFunction,ComponentPad*%
%ADD10R,1.700000X1.700000*%
%TD*%
%TA.AperFunction,ComponentPad*%
%ADD11O,1.700000X1.700000*%
%TD*%
%TA.AperFunction,ComponentPad*%
%ADD12C,1.676400*%
%TD*%
%TA.AperFunction,SMDPad,CuDef*%
%ADD13R,2.600000X3.600000*%
%TD*%
%TA.AperFunction,ViaPad*%
%ADD14C,0.600000*%
%TD*%
%TA.AperFunction,Conductor*%
%ADD15C,0.200000*%
%TD*%
G04 APERTURE END LIST*
D10*
%TO.P,J1,1,Pin_1*%
%TO.N,MISO*%
X100900000Y-80850000D03*
D11*
%TO.P,J1,2,Pin_2*%
%TO.N,VCC*%
X100900000Y-78310000D03*
%TO.P,J1,3,Pin_3*%
%TO.N,SCK*%
X98360000Y-80850000D03*
%TO.P,J1,4,Pin_4*%
%TO.N,MOSI*%
X98360000Y-78310000D03*
%TO.P,J1,5,Pin_5*%
%TO.N,RST*%
X95820000Y-80850000D03*
%TO.P,J1,6,Pin_6*%
%TO.N,GNDREF*%
X95820000Y-78310000D03*
%TD*%
D12*
%TO.P,SW1,1,A*%
%TO.N,unconnected-(SW1-A-Pad1)*%
X99734656Y-50771858D03*
%TO.P,SW1,2,B*%
%TO.N,VCC*%
X97194656Y-50771858D03*
%TO.P,SW1,3,C*%
%TO.N,Net-(BAT1-+)*%
X94654656Y-50771858D03*
%TD*%
D13*
%TO.P,BAT1,1,+*%
%TO.N,Net-(BAT1-+)*%
X112400000Y-65025000D03*
%TO.P,BAT1,2,-*%
%TO.N,GNDREF*%
X83100000Y-65025000D03*
%TD*%
D14*
%TO.N,GNDREF*%
X81075000Y-60700000D03*
X92825000Y-69825000D03*
X81075000Y-60700000D03*
X109700000Y-80675000D03*
%TO.N,VCC*%
X102000000Y-69950000D03*
X103337400Y-62637400D03*
%TO.N,PB4*%
X88850000Y-76850000D03*
X110250000Y-84650000D03*
%TD*%
D15*
%TO.N,GNDREF*%
X88025000Y-65025000D02*
X86575000Y-65025000D01*
X81075000Y-60700000D02*
X81100000Y-60825000D01*
X90237500Y-67237500D02*
X88025000Y-65025000D01*
X83100000Y-65025000D02*
X83100000Y-62825000D01*
X96262500Y-67237500D02*
X90237500Y-67237500D01*
X92825000Y-69825000D02*
X90237500Y-67237500D01*
X83100000Y-62825000D02*
X81075000Y-60700000D01*
X83100000Y-65025000D02*
X88025000Y-65025000D01*
X109700000Y-80675000D02*
X96262500Y-67237500D01*
%TO.N,VCC*%
X103337400Y-62637400D02*
X102000000Y-63974800D01*
X102000000Y-63974800D02*
X102000000Y-69950000D01*
X102000000Y-69950000D02*
X102000000Y-69900000D01*
%TO.N,PB4*%
X110250000Y-84650000D02*
X108535327Y-82935327D01*
X94935327Y-82935327D02*
X88850000Y-76850000D01*
X108535327Y-82935327D02*
X94935327Y-82935327D01*
%TO.N,Net-(BAT1-+)*%
X94654656Y-50771858D02*
X108907798Y-65025000D01*
X108907798Y-65025000D02*
X112400000Y-65025000D01*
%TD*%
M02*
